HIERARCHY
ROOT m_avg_root
{
	OFFSET 0.000000 0.000000 0.000000
	CHANNELS 6 Xposition Yposition Zposition Xrotation Yrotation Zrotation
	JOINT m_avg_Pelvis
	{
		OFFSET -0.002174 0.972724 0.028584
		CHANNELS 6 Xposition Yposition Zposition Xrotation Yrotation Zrotation
		JOINT m_avg_L_Hip
		{
			OFFSET 0.058581 -0.082280 -0.017664
			CHANNELS 6 Xposition Yposition Zposition Xrotation Yrotation Zrotation
			JOINT m_avg_L_Knee
			{
				OFFSET 0.043451 -0.386469 0.008037
				CHANNELS 6 Xposition Yposition Zposition Xrotation Yrotation Zrotation
				JOINT m_avg_L_Ankle
				{
					OFFSET -0.014790 -0.426874 -0.037428
					CHANNELS 6 Xposition Yposition Zposition Xrotation Yrotation Zrotation
					JOINT m_avg_L_Foot
					{
						OFFSET 0.041054 -0.060286 0.122042
						CHANNELS 6 Xposition Yposition Zposition Xrotation Yrotation Zrotation
						End Site
						{
							OFFSET 0.000000 0.142177 0.000000
						}
					}
				}
			}
		}
		JOINT m_avg_R_Hip
		{
			OFFSET -0.060310 -0.090513 -0.013543
			CHANNELS 6 Xposition Yposition Zposition Xrotation Yrotation Zrotation
			JOINT m_avg_R_Knee
			{
				OFFSET -0.043257 -0.383688 -0.004843
				CHANNELS 6 Xposition Yposition Zposition Xrotation Yrotation Zrotation
				JOINT m_avg_R_Ankle
				{
					OFFSET 0.019056 -0.420046 -0.034562
					CHANNELS 6 Xposition Yposition Zposition Xrotation Yrotation Zrotation
					JOINT m_avg_R_Foot
					{
						OFFSET -0.034840 -0.062106 0.130323
						CHANNELS 6 Xposition Yposition Zposition Xrotation Yrotation Zrotation
						End Site
						{
							OFFSET 0.000000 0.148510 0.000000
						}
					}
				}
			}
		}
		JOINT m_avg_Spine1
		{
			OFFSET 0.004439 0.124404 -0.038385
			CHANNELS 6 Xposition Yposition Zposition Xrotation Yrotation Zrotation
			JOINT m_avg_Spine2
			{
				OFFSET 0.004488 0.137956 0.026820
				CHANNELS 6 Xposition Yposition Zposition Xrotation Yrotation Zrotation
				JOINT m_avg_Spine3
				{
					OFFSET -0.002265 0.056032 0.002855
					CHANNELS 6 Xposition Yposition Zposition Xrotation Yrotation Zrotation
					JOINT m_avg_Neck
					{
						OFFSET -0.013390 0.211635 -0.033468
						CHANNELS 6 Xposition Yposition Zposition Xrotation Yrotation Zrotation
						JOINT m_avg_Head
						{
							OFFSET 0.010113 0.088937 0.050410
							CHANNELS 6 Xposition Yposition Zposition Xrotation Yrotation Zrotation
							End Site
							{
								OFFSET 0.000000 0.102729 0.000000
							}
						}
					}
					JOINT m_avg_L_Collar
					{
						OFFSET 0.071702 0.114000 -0.018898
						CHANNELS 6 Xposition Yposition Zposition Xrotation Yrotation Zrotation
						JOINT m_avg_L_Shoulder
						{
							OFFSET 0.122921 0.045205 -0.019046
							CHANNELS 6 Xposition Yposition Zposition Xrotation Yrotation Zrotation
							JOINT m_avg_L_Elbow
							{
								OFFSET 0.255332 -0.015649 -0.022946
								CHANNELS 6 Xposition Yposition Zposition Xrotation Yrotation Zrotation
								JOINT m_avg_L_Wrist
								{
									OFFSET 0.265709 0.012698 -0.007375
									CHANNELS 6 Xposition Yposition Zposition Xrotation Yrotation Zrotation
									JOINT m_avg_L_Hand
									{
										OFFSET 0.086691 -0.010636 -0.015594
										CHANNELS 6 Xposition Yposition Zposition Xrotation Yrotation Zrotation
										End Site
										{
											OFFSET 0.000000 0.088722 0.000000
										}
									}
								}
							}
						}
					}
					JOINT m_avg_R_Collar
					{
						OFFSET -0.082954 0.112472 -0.023707
						CHANNELS 6 Xposition Yposition Zposition Xrotation Yrotation Zrotation
						JOINT m_avg_R_Shoulder
						{
							OFFSET -0.113228 0.046853 -0.008472
							CHANNELS 6 Xposition Yposition Zposition Xrotation Yrotation Zrotation
							JOINT m_avg_R_Elbow
							{
								OFFSET -0.260127 -0.014369 -0.031269
								CHANNELS 6 Xposition Yposition Zposition Xrotation Yrotation Zrotation
								JOINT m_avg_R_Wrist
								{
									OFFSET -0.269108 0.006794 -0.006027
									CHANNELS 6 Xposition Yposition Zposition Xrotation Yrotation Zrotation
									JOINT m_avg_R_Hand
									{
										OFFSET -0.088754 -0.008652 -0.010107
										CHANNELS 6 Xposition Yposition Zposition Xrotation Yrotation Zrotation
										End Site
										{
											OFFSET 0.000000 0.089745 0.000000
										}
									}
								}
							}
						}
					}
				}
			}
		}
	}
}
MOTION
Frames: 4
Frame Time: 0.041667
-0.061511 0.274654 1.515841 -0.000000 0.000000 -0.000000 -0.063684 1.247378 1.544425 127.962515 2.903644 4.208592 0.058581 -0.082280 -0.017664 -48.274493 2.482561 7.302341 0.043451 -0.386469 0.008037 167.471416 -17.521747 1.116165 -0.014790 -0.426874 -0.037428 -22.211688 2.058514 6.126213 0.041054 -0.060286 0.122042 -30.104752 19.203394 3.801372 -0.060310 -0.090513 -0.013543 -35.266364 -7.305202 -3.848982 -0.043257 -0.383688 -0.004843 159.150224 13.072981 1.775988 0.019056 -0.420046 -0.034562 -28.407397 -12.042407 -4.267766 -0.034840 -0.062106 0.130324 -15.646189 13.181180 -15.270782 0.004439 0.124404 -0.038385 35.531351 1.476893 8.484229 0.004488 0.137956 0.026820 18.867385 -2.406898 1.525843 -0.002265 0.056033 0.002855 8.930853 1.073330 -4.618769 -0.013390 0.211635 -0.033467 5.989256 -0.456976 -8.219363 0.010113 0.088938 0.050409 4.416770 0.376418 4.769181 0.071702 0.113999 -0.018898 -3.788954 -17.447054 2.888570 0.122921 0.045205 -0.019046 -24.938518 -22.149503 -52.787103 0.255332 -0.015649 -0.022946 120.131211 -48.772182 162.933152 0.265709 0.012698 -0.007375 -25.655304 -2.199738 5.659865 0.086691 -0.010636 -0.015594 4.862055 0.143538 -3.848486 -0.082954 0.112472 -0.023707 -0.014270 14.376974 -5.238233 -0.113228 0.046853 -0.008472 -10.438629 20.285908 42.451904 -0.260128 -0.014369 -0.031269 -49.158118 142.721488 12.796249 -0.269108 0.006794 -0.006027 -8.455017 3.865326 -1.283603 -0.088754 -0.008652 -0.010107 0.680526 4.410561 9.950119 
-0.061074 0.276547 1.516699 -0.000000 0.000000 -0.000000 -0.063247 1.249270 1.545282 127.441385 2.733737 4.027980 0.058581 -0.082280 -0.017664 -49.308601 2.343448 7.248697 0.043451 -0.386470 0.008037 167.527178 -17.428416 1.159197 -0.014790 -0.426874 -0.037428 -22.281834 2.165676 5.878719 0.041054 -0.060286 0.122042 -30.253794 19.134483 4.000067 -0.060310 -0.090513 -0.013543 -37.330167 -7.218221 -3.814250 -0.043257 -0.383688 -0.004843 159.391344 13.215178 1.759887 0.019055 -0.420045 -0.034562 -28.679633 -12.276103 -4.240574 -0.034840 -0.062105 0.130324 -15.612964 13.393853 -15.565815 0.004439 0.124404 -0.038385 37.418949 1.735107 7.996990 0.004488 0.137956 0.026820 18.629536 -2.241523 2.643518 -0.002265 0.056032 0.002855 8.387451 0.364354 -4.943775 -0.013390 0.211635 -0.033468 5.069112 0.296000 -8.867922 0.010113 0.088938 0.050410 4.412061 0.579221 5.168367 0.071702 0.114000 -0.018898 -1.417287 -18.648513 2.595142 0.122921 0.045205 -0.019046 -23.278459 -20.693431 -51.304191 0.255332 -0.015649 -0.022946 120.395089 -48.746842 163.339316 0.265709 0.012698 -0.007375 -25.397973 -2.136416 5.695658 0.086691 -0.010636 -0.015594 4.723981 0.186718 -3.985021 -0.082954 0.112472 -0.023707 0.314278 14.896552 -6.436207 -0.113228 0.046853 -0.008472 -11.142904 20.055445 43.282516 -0.260128 -0.014369 -0.031269 -48.992657 142.989901 12.521881 -0.269108 0.006794 -0.006027 -8.552094 4.034877 -1.445893 -0.088754 -0.008651 -0.010107 0.619864 4.361606 10.228125 
-0.060684 0.278928 1.517048 -0.000000 0.000000 -0.000000 -0.062858 1.251651 1.545632 126.821559 2.593569 3.804322 0.058581 -0.082280 -0.017664 -50.330308 2.201865 7.133586 0.043452 -0.386469 0.008037 167.620834 -17.331970 1.202605 -0.014790 -0.426874 -0.037428 -22.361384 2.299313 5.673874 0.041054 -0.060286 0.122043 -30.388249 19.055205 4.229219 -0.060310 -0.090513 -0.013543 -39.566541 -7.114686 -3.741518 -0.043257 -0.383688 -0.004843 159.692760 13.353697 1.741766 0.019056 -0.420045 -0.034562 -28.907857 -12.528773 -4.219481 -0.034840 -0.062106 0.130323 -15.630444 13.602931 -15.824372 0.004439 0.124404 -0.038385 39.391576 2.029782 7.465417 0.004488 0.137957 0.026820 18.244615 -2.013401 3.910346 -0.002265 0.056032 0.002855 7.659359 -0.310949 -5.188300 -0.013390 0.211636 -0.033467 4.214437 1.148614 -9.673491 0.010113 0.088938 0.050409 4.502910 0.681242 5.640361 0.071702 0.114000 -0.018898 0.764914 -19.979126 2.202449 0.122921 0.045205 -0.019046 -22.397432 -19.115393 -49.958661 0.255332 -0.015649 -0.022947 120.597932 -48.888933 164.062428 0.265709 0.012698 -0.007375 -25.092766 -2.043441 5.788081 0.086690 -0.010636 -0.015594 4.549157 0.233626 -4.160890 -0.082954 0.112472 -0.023707 0.703730 15.483778 -7.785198 -0.113228 0.046853 -0.008472 -11.854580 19.819093 44.174641 -0.260128 -0.014369 -0.031268 -48.871704 143.140329 12.353230 -0.269108 0.006794 -0.006027 -8.660148 4.205620 -1.610617 -0.088753 -0.008652 -0.010107 0.565104 4.319140 10.514968 
-0.059853 0.281065 1.517406 -0.000000 0.000000 -0.000000 -0.062027 1.253789 1.545989 126.268054 2.401957 3.587431 0.058581 -0.082280 -0.017664 -51.310724 2.049916 6.977036 0.043451 -0.386469 0.008037 167.748340 -17.231521 1.247253 -0.014790 -0.426874 -0.037428 -22.450682 2.448553 5.509702 0.041054 -0.060286 0.122043 -30.503294 18.963815 4.491792 -0.060310 -0.090514 -0.013543 -41.871385 -7.018766 -3.626712 -0.043257 -0.383688 -0.004843 160.045320 13.485007 1.720412 0.019056 -0.420046 -0.034562 -29.088645 -12.786372 -4.204422 -0.034840 -0.062106 0.130324 -15.689494 13.795093 -16.047185 0.004439 0.124403 -0.038386 41.516369 2.339344 6.833707 0.004488 0.137956 0.026821 17.806305 -1.766104 5.269334 -0.002265 0.056032 0.002855 6.853472 -1.032772 -5.393166 -0.013390 0.211635 -0.033468 3.375358 2.095601 -10.573102 0.010113 0.088938 0.050410 4.660121 0.731941 6.132539 0.071702 0.114000 -0.018898 2.837909 -21.412148 1.793463 0.122921 0.045205 -0.019046 -21.947556 -17.589626 -48.579714 0.255332 -0.015649 -0.022947 120.772566 -49.138164 164.825060 0.265710 0.012698 -0.007375 -24.747322 -1.927746 5.926774 0.086690 -0.010636 -0.015594 4.335605 0.286260 -4.358741 -0.082954 0.112472 -0.023707 1.085152 16.099550 -9.295717 -0.113228 0.046853 -0.008472 -12.614486 19.580670 45.058539 -0.260128 -0.014370 -0.031269 -48.785685 143.190763 12.218750 -0.269108 0.006794 -0.006027 -8.771379 4.370035 -1.773795 -0.088754 -0.008652 -0.010107 0.513562 4.280540 10.805305 
